<svg id="Layer_1" data-name="Layer 1" xmlns="http://www.w3.org/2000/svg" xmlns:xlink="http://www.w3.org/1999/xlink" viewBox="0 0 1920 1080"><defs><style>.cls-1{fill:url(#linear-gradient);}.cls-2{fill:#bac5f2;}.cls-3{fill:#e2e6fb;}.cls-4{fill:#e1e5fb;}.cls-5{fill:#faf9ff;}.cls-6{fill:#c9cde1;}.cls-39,.cls-7{fill:#fff;}.cls-8{fill:#dce0f5;}.cls-9{fill:#b5bde9;}.cls-10{fill:#b7bdde;}.cls-11{fill:#e2e6f8;}.cls-12{fill:#e4e5f9;}.cls-13{fill:#bdbed3;}.cls-14{fill:#d8d8db;}.cls-15{fill:#e2e6fd;}.cls-16{fill:#9098bc;}.cls-17{fill:#afb3c4;}.cls-18{fill:#b1b4c7;}.cls-19,.cls-38{fill:#c5c4e2;}.cls-20{fill:#d1d2d7;}.cls-21{fill:#d5d6dc;}.cls-22{fill:#dadada;}.cls-23{fill:#d7d8d7;}.cls-24{fill:#9da6cf;}.cls-25{fill:#e5e3e6;}.cls-26{fill:#e6e4e6;}.cls-27{fill:#e0e1e7;}.cls-28{fill:#e8e7e7;}.cls-29{fill:#e3e2e8;}.cls-30{fill:#f5f4f3;}.cls-31{fill:#f7f4f7;}.cls-32{fill:#eeeff6;}.cls-33{fill:#f1f2f2;}.cls-34{fill:#bbc6f2;}.cls-35,.cls-40{fill:#bdc5f5;}.cls-36{fill:#bcc6f6;}.cls-37{fill:#fffefe;}.cls-38,.cls-39,.cls-40{font-size:72px;font-family:MyriadPro-Regular, Myriad Pro;}.cls-41{fill:#dde0f5;}.cls-42{fill:#bfc3ec;}</style><linearGradient id="linear-gradient" x1="998.5" y1="1080" x2="998.5" gradientUnits="userSpaceOnUse"><stop offset="0" stop-color="#bfbdbf"/><stop offset="0.51" stop-color="#fff"/></linearGradient></defs><rect class="cls-1" x="202" width="1593" height="1080"/><g id="smoke"><path class="cls-2" d="M1620,139l-46,150,30,90s5-14,19,0c0,0,10-13,20-12,0,0-25.5-34.5.5-55.5,0,0,46-26,20-84,0,0-15-26-9-55C1654.5,172.5,1644.5,151.5,1620,139Z"/><path class="cls-3" d="M1620,139s-24-4-59,38-7,129-7,129l20-17Z"/><path class="cls-2" d="M1555,266l7,16,23-61S1578,215,1555,266Z"/><g id="smoke-2" data-name="smoke"><path class="cls-4" d="M1518,663s117,38,104-95c0,0,25.5-31.5,52.5-35.5s14-75,14-75,33-24-3-80l-133,145-27,57Z"/><path class="cls-5" d="M1601.5,384.5h17l19-20s48,0,48,13l-133,145Z"/><path class="cls-6" d="M490,805S307,651,314,625l34.5-11.5,162,77,5,114Z"/><path class="cls-7" d="M1525.5,579.5l125-123s9,41-119,137Z"/><path class="cls-8" d="M490,540s-18-87-63-77c0,0-8.5-28.5-59.5-31.5l115,259Z"/><path class="cls-9" d="M348.5,613.5s27,23,39,14c0,0,36-8,54,46,0,0,15,32,43,28l-117-270s-23,14-23,47c0,0,6,3-19,37,0,0-21,27,23,57C348.5,572.5,379.5,587.5,348.5,613.5Z"/><path class="cls-10" d="M408.5,497.5l58,119L455.36,625S397.5,514.5,408.5,497.5Z"/><path class="cls-9" d="M347.5,709.5s96,90,102,87C449.5,796.5,385.5,785.5,347.5,709.5Z"/></g></g><rect class="cls-11" x="497" y="246" width="992" height="670"/><g id="decore"><rect class="cls-12" x="351.59" y="206.75" width="45.49" height="45.49" transform="translate(271.92 -197.47) rotate(45)"/><rect class="cls-12" x="396.59" y="161.75" width="45.49" height="45.49" transform="translate(253.28 -242.47) rotate(45)"/><rect class="cls-12" x="396.59" y="251.75" width="45.49" height="45.49" transform="translate(316.92 -216.11) rotate(45)"/><rect class="cls-13" x="1599.59" y="827.75" width="45.49" height="45.49" transform="translate(2168.1 2599.06) rotate(-135)"/><rect class="cls-13" x="1554.59" y="872.75" width="45.49" height="45.49" transform="translate(2059.46 2644.06) rotate(-135)"/><rect class="cls-13" x="1554.59" y="782.75" width="45.49" height="45.49" transform="translate(2123.1 2490.42) rotate(-135)"/><rect class="cls-14" x="654" y="29" width="350" height="151"/><rect class="cls-15" x="1025" y="29" width="144" height="150"/><rect class="cls-16" x="599" y="918" width="222" height="80"/><rect class="cls-17" x="1077" y="924" width="222" height="80"/><rect class="cls-18" x="445" y="872" width="130" height="126"/><circle class="cls-19" cx="592" cy="216" r="9"/><circle class="cls-19" cx="624" cy="216" r="9"/></g><g id="celender"><rect class="cls-20" x="693" y="717" width="116" height="131"/><rect class="cls-21" x="827" y="717" width="116" height="131"/><rect class="cls-22" x="961" y="717" width="116" height="131"/><rect class="cls-23" x="1095" y="717" width="116" height="131"/><rect class="cls-24" x="1229" y="717" width="116" height="131"/><rect class="cls-25" x="693" y="566" width="116" height="131"/><rect class="cls-26" x="827" y="566" width="116" height="131"/><rect class="cls-27" x="961" y="566" width="116" height="131"/><rect class="cls-28" x="1095" y="566" width="116" height="131"/><rect class="cls-29" x="1229" y="566" width="116" height="131"/><rect class="cls-29" x="1229" y="420" width="116" height="131"/><rect class="cls-29" x="1229" y="274" width="116" height="131"/><rect class="cls-30" x="693" y="415" width="116" height="131"/><rect class="cls-31" x="827" y="415" width="116" height="131"/><rect class="cls-32" x="961" y="415" width="116" height="131"/><rect class="cls-33" x="1095" y="415" width="116" height="131"/><rect class="cls-34" x="693" y="264" width="116" height="131"/><rect class="cls-35" x="827" y="264" width="116" height="131"/><rect class="cls-36" x="961" y="264" width="116" height="131"/><rect class="cls-37" x="1095" y="264" width="116" height="131"/><circle class="cls-19" cx="1115" cy="294" r="9"/><text class="cls-38" transform="translate(1161.96 375.96)">4</text><text class="cls-39" transform="translate(896.96 380.96)">2</text><text class="cls-40" transform="translate(761.96 531.96)">7</text><circle class="cls-19" cx="1115" cy="451" r="9"/><circle class="cls-19" cx="1153" cy="451" r="9"/><text class="cls-38" transform="translate(1134.12 536.76)">10</text><text class="cls-38" transform="translate(1006.12 682.76)">15</text><text class="cls-38" transform="translate(853.12 823.76)">20</text><circle class="cls-19" cx="1115" cy="594" r="9"/><circle class="cls-19" cx="1147" cy="594" r="9"/><circle class="cls-19" cx="721" cy="745" r="9"/><circle class="cls-19" cx="753" cy="745" r="9"/><circle class="cls-19" cx="1115" cy="745" r="9"/><circle class="cls-19" cx="1147" cy="745" r="9"/><circle class="cls-7" cx="978" cy="294" r="9"/><circle class="cls-7" cx="1019" cy="294" r="9"/><circle class="cls-7" cx="847" cy="294" r="9"/><circle class="cls-7" cx="888" cy="294" r="9"/><circle class="cls-7" cx="716" cy="294" r="9"/><circle class="cls-7" cx="757" cy="294" r="9"/><rect class="cls-41" x="707" y="463" width="30" height="18" rx="9"/><rect class="cls-42" x="707" y="433" width="59" height="18" rx="9"/><rect class="cls-7" x="1230" y="736" width="59" height="18" rx="9"/><rect class="cls-41" x="838" y="457" width="30" height="18" rx="9"/><rect class="cls-42" x="838" y="427" width="59" height="18" rx="9"/></g></svg>