<svg id="Layer_1" data-name="Layer 1" xmlns="http://www.w3.org/2000/svg" xmlns:xlink="http://www.w3.org/1999/xlink" viewBox="0 0 1920 1080"><defs><style>.cls-1{fill:#bdc6f3;}.cls-2{fill:url(#linear-gradient);}.cls-3{fill:url(#linear-gradient-2);}.cls-4{fill:#fbb03b;}.cls-5{fill:url(#linear-gradient-3);}.cls-6{fill:#1b1464;}</style><linearGradient id="linear-gradient" x1="745.93" y1="526.7" x2="907.93" y2="388.46" gradientUnits="userSpaceOnUse"><stop offset="0.17" stop-color="#6200bf"/><stop offset="0.91" stop-color="#fac3ff"/></linearGradient><linearGradient id="linear-gradient-2" x1="695.5" y1="472.5" x2="848.5" y2="472.5" gradientUnits="userSpaceOnUse"><stop offset="0.27" stop-color="#6200bf"/><stop offset="1" stop-color="#fac3ff"/></linearGradient><linearGradient id="linear-gradient-3" x1="832" y1="258.17" x2="914.17" y2="258.17" gradientUnits="userSpaceOnUse"><stop offset="0" stop-color="blue"/><stop offset="1" stop-color="aqua"/></linearGradient></defs><g id="boy"><rect class="cls-1" x="590.92" y="296.93" width="246.12" height="295.97" rx="23.08" transform="translate(-58.01 110.62) rotate(-8.51)"/><path class="cls-2" d="M793.75,287.75v23L848.5,348.5s3,8-18,10c0,0-26,3-36,67,0,0,3,29-45,73l-57,73,15,19,27-20-6,26S850,624,873.5,616c0,0,109-205.5,82-272.5a34.91,34.91,0,0,0-23-9s-18,5-28-2c0,0-30.5-4.5-65-22C839.5,310.5,827.75,306.75,793.75,287.75Z"/><path class="cls-3" d="M848.5,354.5s-33-1-41,36c0,0-4,29-27,77,0,0-57,66-85,101a32.21,32.21,0,0,1,13,22s113-86,135-168Z"/><path class="cls-4" d="M832,237s-7,54,12,68c0,0,14,6,21,11l.5,24.5s19,10,39-8c0,0-4-13-4-39Z"/><path class="cls-5" d="M832,237s9,18,21,31c0,0,10.5-.5,17.5,32.5,0,0,16,0,18-3,0,0,14-1,19-11,0,0,15-15,0-50,0,0-16-25-47-20C860.5,216.5,840.5,218.5,832,237Z"/><path class="cls-4" d="M793.75,287.75S765,274,745,285c0,0,6,22,24,26l24.75-.25Z"/><path class="cls-4" d="M693,572s-21,16-28,25c0,0-1,17,25,4l19-10Z"/><path class="cls-6" d="M699.5,978.5c11-47,24-191,24-191l1-4s52-110,62-123l4,1,12,109c34.24,58.69,83.84,193.82,80,201-1,15-27.5,12.5-27.5,12.5-20-10-21.5,7.5-21.5,7.5,36,28.86,84,16.69,89,17,4-29-22-120-22-120-12-80-45-107-45-107,8-48,18-165.5,18-165.5-15,7-145-19.5-145-19.5-49,108-51,178-51,178l-13,210c-3.88,13.18-32.6,13.54-44.41,13.94a4.22,4.22,0,0,0-2.8,7.25c14.86,14.29,83.21,20.81,83.21,20.81h2c2-30-5-44-5-44Z"/></g></svg>