<svg id="Layer_1" data-name="Layer 1" xmlns="http://www.w3.org/2000/svg" xmlns:xlink="http://www.w3.org/1999/xlink" viewBox="0 0 1920 1080"><defs><style>.cls-1{fill:url(#linear-gradient);}.cls-2{fill:#bac5f2;}.cls-3{fill:#e2e6fb;}.cls-4{fill:#e1e5fb;}.cls-5{fill:#faf9ff;}.cls-6{fill:#c9cde1;}.cls-39,.cls-7{fill:#fff;}.cls-8{fill:#dce0f5;}.cls-9{fill:#b5bde9;}.cls-10{fill:#b7bdde;}.cls-11{fill:#e2e6f8;}.cls-12{fill:#e4e5f9;}.cls-13{fill:#bdbed3;}.cls-14{fill:#d8d8db;}.cls-15{fill:#e2e6fd;}.cls-16{fill:#9098bc;}.cls-17{fill:#afb3c4;}.cls-18{fill:#b1b4c7;}.cls-19,.cls-38{fill:#c5c4e2;}.cls-20{fill:#d1d2d7;}.cls-21{fill:#d5d6dc;}.cls-22{fill:#dadada;}.cls-23{fill:#d7d8d7;}.cls-24{fill:#9da6cf;}.cls-25{fill:#e5e3e6;}.cls-26{fill:#e6e4e6;}.cls-27{fill:#e0e1e7;}.cls-28{fill:#e8e7e7;}.cls-29{fill:#e3e2e8;}.cls-30{fill:#f5f4f3;}.cls-31{fill:#f7f4f7;}.cls-32{fill:#eeeff6;}.cls-33{fill:#f1f2f2;}.cls-34{fill:#bbc6f2;}.cls-35,.cls-40{fill:#bdc5f5;}.cls-36{fill:#bcc6f6;}.cls-37{fill:#fffefe;}.cls-38,.cls-39,.cls-40{font-size:72px;font-family:MyriadPro-Regular, Myriad Pro;}.cls-41{fill:#dde0f5;}.cls-42{fill:#bfc3ec;}.cls-43{fill:#bdc6f3;}.cls-44{fill:url(#linear-gradient-2);}.cls-45{fill:#fbb03b;}.cls-46{fill:url(#linear-gradient-3);}.cls-47{fill:url(#linear-gradient-4);}.cls-48{fill:#1b1464;}.cls-49{fill:url(#linear-gradient-5);}.cls-50{fill:url(#linear-gradient-6);}.cls-51{fill:url(#linear-gradient-7);}</style><linearGradient id="linear-gradient" x1="998.5" y1="1080" x2="998.5" gradientUnits="userSpaceOnUse"><stop offset="0" stop-color="#bfbdbf"/><stop offset="0.51" stop-color="#fff"/></linearGradient><linearGradient id="linear-gradient-2" x1="456.54" y1="446.75" x2="659.23" y2="446.75" gradientUnits="userSpaceOnUse"><stop offset="0" stop-color="#fac3ff"/><stop offset="1" stop-color="#6200bf"/></linearGradient><linearGradient id="linear-gradient-3" x1="479.75" y1="307" x2="636.72" y2="307" gradientUnits="userSpaceOnUse"><stop offset="0" stop-color="blue"/><stop offset="1" stop-color="aqua"/></linearGradient><linearGradient id="linear-gradient-4" x1="479.47" y1="719.73" x2="643.48" y2="719.73" xlink:href="#linear-gradient-3"/><linearGradient id="linear-gradient-5" x1="1399.93" y1="475.7" x2="1561.93" y2="337.46" gradientUnits="userSpaceOnUse"><stop offset="0.17" stop-color="#6200bf"/><stop offset="0.91" stop-color="#fac3ff"/></linearGradient><linearGradient id="linear-gradient-6" x1="1349.5" y1="421.5" x2="1502.5" y2="421.5" gradientUnits="userSpaceOnUse"><stop offset="0.27" stop-color="#6200bf"/><stop offset="1" stop-color="#fac3ff"/></linearGradient><linearGradient id="linear-gradient-7" x1="1486" y1="207.17" x2="1568.17" y2="207.17" xlink:href="#linear-gradient-3"/></defs><rect class="cls-1" x="202" width="1593" height="1080"/><g id="smoke"><path class="cls-2" d="M1620,139l-46,150,30,90s5-14,19,0c0,0,10-13,20-12,0,0-25.5-34.5.5-55.5,0,0,46-26,20-84,0,0-15-26-9-55C1654.5,172.5,1644.5,151.5,1620,139Z"/><path class="cls-3" d="M1620,139s-24-4-59,38-7,129-7,129l20-17Z"/><path class="cls-2" d="M1555,266l7,16,23-61S1578,215,1555,266Z"/><g id="smoke-2" data-name="smoke"><path class="cls-4" d="M1518,663s117,38,104-95c0,0,25.5-31.5,52.5-35.5s14-75,14-75,33-24-3-80l-133,145-27,57Z"/><path class="cls-5" d="M1601.5,384.5h17l19-20s48,0,48,13l-133,145Z"/><path class="cls-6" d="M490,805S307,651,314,625l34.5-11.5,162,77,5,114Z"/><path class="cls-7" d="M1525.5,579.5l125-123s9,41-119,137Z"/><path class="cls-8" d="M490,540s-18-87-63-77c0,0-8.5-28.5-59.5-31.5l115,259Z"/><path class="cls-9" d="M348.5,613.5s27,23,39,14c0,0,36-8,54,46,0,0,15,32,43,28l-117-270s-23,14-23,47c0,0,6,3-19,37,0,0-21,27,23,57C348.5,572.5,379.5,587.5,348.5,613.5Z"/><path class="cls-10" d="M408.5,497.5l58,119L455.36,625S397.5,514.5,408.5,497.5Z"/><path class="cls-9" d="M347.5,709.5s96,90,102,87C449.5,796.5,385.5,785.5,347.5,709.5Z"/></g></g><rect class="cls-11" x="497" y="246" width="992" height="670"/><g id="decore"><rect class="cls-12" x="351.59" y="206.75" width="45.49" height="45.49" transform="translate(271.92 -197.47) rotate(45)"/><rect class="cls-12" x="396.59" y="161.75" width="45.49" height="45.49" transform="translate(253.28 -242.47) rotate(45)"/><rect class="cls-12" x="396.59" y="251.75" width="45.49" height="45.49" transform="translate(316.92 -216.11) rotate(45)"/><rect class="cls-13" x="1599.59" y="827.75" width="45.49" height="45.49" transform="translate(2168.1 2599.06) rotate(-135)"/><rect class="cls-13" x="1554.59" y="872.75" width="45.49" height="45.49" transform="translate(2059.46 2644.06) rotate(-135)"/><rect class="cls-13" x="1554.59" y="782.75" width="45.49" height="45.49" transform="translate(2123.1 2490.42) rotate(-135)"/><rect class="cls-14" x="654" y="29" width="350" height="151"/><rect class="cls-15" x="1025" y="29" width="144" height="150"/><rect class="cls-16" x="599" y="918" width="222" height="80"/><rect class="cls-17" x="1077" y="924" width="222" height="80"/><rect class="cls-18" x="445" y="872" width="130" height="126"/><circle class="cls-19" cx="592" cy="216" r="9"/><circle class="cls-19" cx="624" cy="216" r="9"/></g><g id="celender"><rect class="cls-20" x="693" y="717" width="116" height="131"/><rect class="cls-21" x="827" y="717" width="116" height="131"/><rect class="cls-22" x="961" y="717" width="116" height="131"/><rect class="cls-23" x="1095" y="717" width="116" height="131"/><rect class="cls-24" x="1229" y="717" width="116" height="131"/><rect class="cls-25" x="693" y="566" width="116" height="131"/><rect class="cls-26" x="827" y="566" width="116" height="131"/><rect class="cls-27" x="961" y="566" width="116" height="131"/><rect class="cls-28" x="1095" y="566" width="116" height="131"/><rect class="cls-29" x="1229" y="566" width="116" height="131"/><rect class="cls-30" x="693" y="415" width="116" height="131"/><rect class="cls-31" x="827" y="415" width="116" height="131"/><rect class="cls-32" x="961" y="415" width="116" height="131"/><rect class="cls-33" x="1095" y="415" width="116" height="131"/><rect class="cls-34" x="693" y="264" width="116" height="131"/><rect class="cls-35" x="827" y="264" width="116" height="131"/><rect class="cls-36" x="961" y="264" width="116" height="131"/><rect class="cls-37" x="1095" y="264" width="116" height="131"/><circle class="cls-19" cx="1115" cy="294" r="9"/><text class="cls-38" transform="translate(1161.96 375.96)">4</text><text class="cls-39" transform="translate(896.96 380.96)">2</text><text class="cls-40" transform="translate(761.96 531.96)">7</text><circle class="cls-19" cx="1115" cy="451" r="9"/><circle class="cls-19" cx="1153" cy="451" r="9"/><text class="cls-38" transform="translate(1134.12 536.76)">10</text><text class="cls-38" transform="translate(1006.12 682.76)">15</text><text class="cls-38" transform="translate(853.12 823.76)">20</text><circle class="cls-19" cx="1115" cy="594" r="9"/><circle class="cls-19" cx="1147" cy="594" r="9"/><circle class="cls-19" cx="721" cy="745" r="9"/><circle class="cls-19" cx="753" cy="745" r="9"/><circle class="cls-19" cx="1115" cy="745" r="9"/><circle class="cls-19" cx="1147" cy="745" r="9"/><circle class="cls-7" cx="978" cy="294" r="9"/><circle class="cls-7" cx="1019" cy="294" r="9"/><circle class="cls-7" cx="847" cy="294" r="9"/><circle class="cls-7" cx="888" cy="294" r="9"/><circle class="cls-7" cx="716" cy="294" r="9"/><circle class="cls-7" cx="757" cy="294" r="9"/><rect class="cls-41" x="707" y="463" width="30" height="18" rx="9"/><rect class="cls-42" x="707" y="433" width="59" height="18" rx="9"/><rect class="cls-7" x="1230" y="736" width="59" height="18" rx="9"/><rect class="cls-41" x="838" y="457" width="30" height="18" rx="9"/><rect class="cls-42" x="838" y="427" width="59" height="18" rx="9"/></g><rect class="cls-43" x="1182.92" y="244.93" width="246.12" height="295.97" rx="23.08" transform="translate(-43.78 197.7) rotate(-8.51)"/><g id="girl"><path class="cls-44" d="M492.75,380S454.9,446.82,456.6,485.55a7.4,7.4,0,0,0,10,6.62c11.2-4.18,31.06-13.3,45.41-29.38L491.5,527H602.15a4.5,4.5,0,0,0,4.5-4.35L617,387c0-.9-5.22-9.39-4.69-10.12L619.5,367l4,51.83c0,.11,0,.22,0,.33,0,4.6,3.32,107.68,17,143.84H656c12.74-152.18-15.75-221.9-23.5-221-14-24-60-3-60-3-16,15-39,0-39,0l-40.75,41"/><path class="cls-45" d="M534,343s23.47,10,41.24,0c0,0-16.24-31-.24-59s1-51-17-52l-13-27-33,36s3,38,13,52,6,40,3,44S534,343,534,343Z"/><path class="cls-46" d="M543.5,214.5s-21,13-28,33c0,0,3,26,14,44,0,0,8,25.61,4.76,47-.21,1.36-.46,2.71-.76,4-5,22-38,42-51,49,0,0-11-3,11-52,0,0,7-6,9-119,0,0,7-30,41-34,0,0,41,8,42,43,0,0,9,58,29,101,0,0,50,46,0,97,0,0,6-50-22-65,0,0-39-29-23-72,0,0,28-46-7-54,0,0-14-12-16-25Z"/><rect class="cls-7" x="512.72" y="408.32" width="24.73" height="49" transform="matrix(0.89, -0.46, 0.46, 0.89, -140.69, 292.12)"/><path class="cls-45" d="M509,438l7,13s17-13,24-13S532,414,509,438Z"/><path class="cls-47" d="M491.5,525.5S551,530,607,524c0,0,30,145,35,202s-3.75,108.75-10.75,188.75c0,0-15.75,1.75-26.75-.25,0,0-13-182-13-196,0,0-7-9-43-99,0,0-4.75,268.25-13.75,294.25L515,914.5s-30.5-202-27.5-211C487.5,703.5,467,584,491.5,525.5Z"/><path class="cls-48" d="M515,914.5l19.75-.75S554,963,528,964c0,0-26-7-19-28C509,936,512,918.5,515,914.5Z"/><path class="cls-48" d="M607,915l24.25-.25S634,931,667,941c0,0,12,2,13,12H607Z"/><path class="cls-45" d="M641,563h15s21,9.62,11,28Z"/></g><g id="boy"><path class="cls-49" d="M1447.75,236.75v23l54.75,37.75s3,8-18,10c0,0-26,3-36,67,0,0,3,29-45,73l-57,73,15,19,27-20-6,26S1504,573,1527.5,565c0,0,109-205.5,82-272.5a34.91,34.91,0,0,0-23-9s-18,5-28-2c0,0-30.5-4.5-65-22C1493.5,259.5,1481.75,255.75,1447.75,236.75Z"/><path class="cls-50" d="M1502.5,303.5s-33-1-41,36c0,0-4,29-27,77,0,0-57,66-85,101a32.21,32.21,0,0,1,13,22s113-86,135-168Z"/><path class="cls-45" d="M1486,186s-7,54,12,68c0,0,14,6,21,11l.5,24.5s19,10,39-8c0,0-4-13-4-39Z"/><path class="cls-51" d="M1486,186s9,18,21,31c0,0,10.5-.5,17.5,32.5,0,0,16,0,18-3,0,0,14-1,19-11,0,0,15-15,0-50,0,0-16-25-47-20C1514.5,165.5,1494.5,167.5,1486,186Z"/><path class="cls-45" d="M1447.75,236.75S1419,223,1399,234c0,0,6,22,24,26l24.75-.25Z"/><path class="cls-45" d="M1347,521s-21,16-28,25c0,0-1,17,25,4l19-10Z"/><path class="cls-48" d="M1353.5,927.5c11-47,24-191,24-191l1-4s52-110,62-123l4,1,12,109c34.24,58.69,83.84,193.82,80,201-1,15-27.5,12.5-27.5,12.5-20-10-21.5,7.5-21.5,7.5,36,28.86,84,16.69,89,17,4-29-22-120-22-120-12-80-45-107-45-107,8-48,18-165.5,18-165.5-15,7-145-19.5-145-19.5-49,108-51,178-51,178l-13,210c-3.88,13.18-32.6,13.54-44.41,13.94a4.22,4.22,0,0,0-2.8,7.25c14.86,14.29,83.21,20.81,83.21,20.81h2c2-30-5-44-5-44Z"/></g></svg>