<svg id="Layer_1" data-name="Layer 1" xmlns="http://www.w3.org/2000/svg" xmlns:xlink="http://www.w3.org/1999/xlink" viewBox="0 0 1920 1080"><defs><style>.cls-1{fill:url(#linear-gradient);}.cls-2{fill:#fbb03b;}.cls-3{fill:url(#linear-gradient-2);}.cls-4{fill:#fff;}.cls-5{fill:url(#linear-gradient-3);}.cls-6{fill:#1b1464;}</style><linearGradient id="linear-gradient" x1="561.54" y1="411.75" x2="764.23" y2="411.75" gradientUnits="userSpaceOnUse"><stop offset="0" stop-color="#fac3ff"/><stop offset="1" stop-color="#6200bf"/></linearGradient><linearGradient id="linear-gradient-2" x1="584.75" y1="272" x2="741.72" y2="272" gradientUnits="userSpaceOnUse"><stop offset="0" stop-color="blue"/><stop offset="1" stop-color="aqua"/></linearGradient><linearGradient id="linear-gradient-3" x1="584.47" y1="684.73" x2="748.48" y2="684.73" xlink:href="#linear-gradient-2"/></defs><g id="girl"><path class="cls-1" d="M597.75,345S559.9,411.82,561.6,450.55a7.4,7.4,0,0,0,10,6.62c11.2-4.18,31.06-13.3,45.41-29.38L596.5,492H707.15a4.5,4.5,0,0,0,4.5-4.35L722,352c0-.9-5.22-9.39-4.69-10.12L724.5,332l4,51.83c0,.11,0,.22,0,.33,0,4.6,3.32,107.68,17,143.84H761c12.74-152.18-15.75-221.9-23.5-221-14-24-60-3-60-3-16,15-39,0-39,0l-40.75,41"/><path class="cls-2" d="M639,308s23.47,10,41.24,0c0,0-16.24-31-.24-59s1-51-17-52l-13-27-33,36s3,38,13,52,6,40,3,44S639,308,639,308Z"/><path class="cls-3" d="M648.5,179.5s-21,13-28,33c0,0,3,26,14,44,0,0,8,25.61,4.76,47-.21,1.36-.46,2.71-.76,4-5,22-38,42-51,49,0,0-11-3,11-52,0,0,7-6,9-119,0,0,7-30,41-34,0,0,41,8,42,43,0,0,9,58,29,101,0,0,50,46,0,97,0,0,6-50-22-65,0,0-39-29-23-72,0,0,28-46-7-54,0,0-14-12-16-25Z"/><rect class="cls-4" x="617.72" y="373.32" width="24.73" height="49" transform="matrix(0.89, -0.46, 0.46, 0.89, -112.57, 336.74)"/><path class="cls-2" d="M614,403l7,13s17-13,24-13S637,379,614,403Z"/><path class="cls-5" d="M596.5,490.5S656,495,712,489c0,0,30,145,35,202s-3.75,108.75-10.75,188.75c0,0-15.75,1.75-26.75-.25,0,0-13-182-13-196,0,0-7-9-43-99,0,0-4.75,268.25-13.75,294.25L620,879.5s-30.5-202-27.5-211C592.5,668.5,572,549,596.5,490.5Z"/><path class="cls-6" d="M620,879.5l19.75-.75S659,928,633,929c0,0-26-7-19-28C614,901,617,883.5,620,879.5Z"/><path class="cls-6" d="M712,880l24.25-.25S739,896,772,906c0,0,12,2,13,12H712Z"/><path class="cls-2" d="M746,528h15s21,9.62,11,28Z"/></g></svg>